<svg id="Layer_1" enable-background="new 0 0 512 512" height="512" viewBox="0 0 512 512" width="512" xmlns="http://www.w3.org/2000/svg"><g><path d="m474.395 399.346h-.682v-294.887c0-29.005-23.598-52.603-52.603-52.603h-46.487c-4.151 0-7.515 3.364-7.515 7.515s3.364 7.515 7.515 7.515h46.487c20.718 0 37.573 16.855 37.573 37.573v294.888h-15.029v-294.888c0-12.431-10.113-22.544-22.544-22.544h-330.221c-12.43 0-22.544 10.113-22.544 22.544v294.888h-15.029v-294.888c0-20.718 16.855-37.573 37.573-37.573h253.675c4.151 0 7.515-3.364 7.515-7.515s-3.364-7.515-7.515-7.515h-253.675c-29.005 0-52.603 23.598-52.603 52.603v294.888h-.682c-20.734-.001-37.604 16.869-37.604 37.604v15.678c0 4.151 3.364 7.515 7.515 7.515h337.05c4.151 0 7.515-3.364 7.515-7.515s-3.364-7.515-7.515-7.515h-329.536v-8.163c0-12.448 10.127-22.575 22.575-22.575h88.284c4.151 0 7.515-3.364 7.515-7.515s-3.364-7.515-7.515-7.515h-42.513v-294.887c0-4.144 3.371-7.515 7.515-7.515h92.89l-36.45 185.939c-19.235.265-34.803 15.986-34.803 35.283 0 19.462 15.834 35.296 35.296 35.296s35.294-15.834 35.294-35.296c0-14.397-8.669-26.801-21.058-32.286l37.037-188.936h41.861v195.758c-15.863 3.454-27.781 17.599-27.781 34.482 0 19.462 15.834 35.296 35.296 35.296 11.269 0 21.314-5.315 27.781-13.563 6.467 8.248 16.512 13.563 27.781 13.563s21.314-5.315 27.781-13.563c6.467 8.248 16.511 13.563 27.781 13.563 19.462 0 35.295-15.834 35.295-35.296 0-16.883-11.917-31.028-27.78-34.482v-195.758h54.002c4.144 0 7.515 3.371 7.515 7.515v294.888h-272.681c-4.151 0-7.515 3.364-7.515 7.515s3.364 7.515 7.515 7.515h318.448c12.448 0 22.575 10.127 22.575 22.575v8.163h-122.347c-4.151 0-7.515 3.364-7.515 7.515s3.364 7.515 7.515 7.515h129.862c4.151 0 7.515-3.364 7.515-7.515v-15.678c0-20.736-16.87-37.606-37.605-37.606zm-306.308-81.18c0 11.175-9.091 20.266-20.265 20.266-11.175 0-20.266-9.091-20.266-20.266s9.091-20.266 20.266-20.266c11.174 0 20.265 9.091 20.265 20.266zm128.431-221.222v195.758c-8.165 1.778-15.279 6.39-20.266 12.75-4.987-6.36-12.101-10.972-20.266-12.75v-195.758zm-48.047 250.506c-11.175 0-20.266-9.091-20.266-20.266s9.091-20.266 20.266-20.266 20.266 9.091 20.266 20.266-9.091 20.266-20.266 20.266zm55.561 0c-11.175 0-20.266-9.091-20.266-20.266s9.091-20.266 20.266-20.266 20.266 9.091 20.266 20.266-9.091 20.266-20.266 20.266zm75.827-20.266c0 11.175-9.091 20.266-20.265 20.266-11.175 0-20.266-9.091-20.266-20.266s9.091-20.266 20.266-20.266c11.174 0 20.265 9.091 20.265 20.266zm-27.78-34.482c-8.165 1.778-15.279 6.39-20.266 12.75-4.987-6.36-12.101-10.972-20.266-12.75v-195.758h40.532z"/></g></svg>